<svg id="Layer_1" data-name="Layer 1" xmlns="http://www.w3.org/2000/svg" viewBox="0 0 997.61 489.2"><defs><style>.cls-1{fill:none;stroke:#000;stroke-miterlimit:10;stroke-width:0.25px;opacity:0.2;}</style></defs><title>spongeWaves</title><path class="cls-1" d="M86.61,168a121.06,121.06,0,0,0,62.84,24.78c8.73,0.8,17.82.7,25.77,4.38,16.21,7.49,26.8,29.75,44.43,26.89,5.2-.84,9.71-3.92,14.43-6.26,12.2-6.06,26.16-7.29,39.74-8.42,11.83-1,24.54-1.78,34.75,4.29,7,4.19,12,11.22,19.12,15.35,8.89,5.19,19.77,5.15,30.06,5l133-2.45c6.32-.12,13.33,0,18,4.31,4.42,4.09,5.36,10.8,9.22,15.42,9.72,11.65,28,3.36,42.36-1.67,22.65-8,47.5-5,71.32-2,12.84,1.64,25.83,3.32,37.89,8,7.92,3.09,15.48,7.48,23.9,8.66,13.65,1.91,26.78-4.86,39.95-8.92a105.16,105.16,0,0,1,63.7.68c25.21,8.38,46.45,26.08,71.5,34.93,11.41,4,23.53,6.19,34.35,11.58s20.61,15.13,21.54,27.2" transform="translate(62.96 -167.94)"/><path class="cls-1" d="M-62.6,657.13C-64.94,631-50.09,604.18-26.72,592.3c31-15.77,69.45-5.26,102.36-16.53C104.45,565.92,125,541,150.32,524c22.07-14.8,47.61-23.4,72.8-31.83,12.76-4.27,26-8.6,39.38-7.28,17.37,1.71,32.3,12.59,48.7,18.53,22.07,8,46.26,6.89,69.7,5.68l74.27-3.84c16.41-.85,32.93-1.69,49.24.31,20.75,2.55,40.89,9.68,61.79,10.43,19.39,0.7,38.48-4.12,57.59-7.45,42.59-7.41,87.36-7.29,128,7.49,28.44,10.34,55.89,27.93,86.09,26,9.62-.6,19-3.2,28.18-6.14a370.59,370.59,0,0,0,68.54-29.91" transform="translate(62.96 -167.94)"/><path class="cls-1" d="M228,203.91c3.54-1.21,7.08-2.43,10.68-3.44a103.81,103.81,0,0,1,85.79,14.17" transform="translate(62.96 -167.94)"/><path class="cls-1" d="M319.82,255.95a1160.24,1160.24,0,0,0-113.75,191.4" transform="translate(62.96 -167.94)"/></svg>