<svg xmlns="http://www.w3.org/2000/svg" viewBox="0 0 124.77 46.81"><defs><style>.cls-1{fill:#231f20;}</style></defs><title>Asset 2</title><g id="Layer_2" data-name="Layer 2"><g id="Layer_1-2" data-name="Layer 1"><path class="cls-1" d="M21.59,9c0-4.29-.58-6.89-3.71-8.19V.65H31.14V.78C28,2.08,27.44,4.68,27.44,9v25c0,8.32-6,12.87-14,12.87S0,42.91,0,37.19c0-3.64,2.41-5.92,6-5.92a6,6,0,0,1,3.84,1.3c-2.73.33-4,2.28-4,5.07,0,4.42,2.73,7.93,7.48,7.93,6,0,8.19-4.62,8.19-11.25Z"/><path class="cls-1" d="M57.8,46.81c-12.09,0-22.3-9.75-22.3-23.41S45.71,0,57.8,0,80.1,9.75,80.1,23.41,69.89,46.81,57.8,46.81Zm0-45.32c-10.21,0-15.54,9.43-15.54,21.91S47.59,45.32,57.8,45.32s15.54-9.43,15.54-21.91S68,1.5,57.8,1.5Z"/><path class="cls-1" d="M116.44,7.87a6.41,6.41,0,0,0,1-3.19,4.28,4.28,0,0,0-2.47-3.9V.65h9.82V.78c-2.67,1.63-4.36,3.9-6.11,6.76l-12.22,19.7V38.36c0,4.29.91,6.37,4,7.67v.13H96.74V46c3.12-1.3,4-3.38,4-7.67V27.24L88.16,7A17.53,17.53,0,0,0,82.44.78V.65H96.16V.78a3.82,3.82,0,0,0-2.34,3.51,5.47,5.47,0,0,0,1,3L105.85,25Z"/></g></g></svg>