<svg xmlns="http://www.w3.org/2000/svg" viewBox="0 0 228.66 46.88"><defs><style>.cls-1{fill:#fff;}</style></defs><title>Asset 1</title><g id="Layer_2" data-name="Layer 2"><g id="Layer_1-2" data-name="Layer 1"><path class="cls-1" d="M5.4,10.6c0,5.92,4.88,7.87,10.47,9.43,7.35,2,15.8,3.9,15.8,13.91,0,9-7.74,12.87-15.54,12.87-5.2,0-8.78-2.41-11.31-2.41C3,44.41,2,45.51.71,46.81L0,32.51H.13c3.58,8.19,9.43,12.81,16,12.81,5.72,0,10.34-3.45,10.34-9.75,0-6.5-6-8.13-12.22-9.95C7.54,23.67.52,21.46.52,12.55.52,4.88,7,0,14.69,0c5.2,0,8.58,2.28,10.6,2.28S28.28,1,29.13,0l.26,13.2h-.13C26.33,6.76,21.72,1.5,14.69,1.5,9.88,1.5,5.4,4.42,5.4,10.6Z"/><path class="cls-1" d="M41.09,9c0-4.29-.58-6.89-3.71-8.19V.65H50.65V.78c-3.12,1.3-3.71,3.9-3.71,8.19v13.2H73.4V9c0-4.29-.59-6.89-3.71-8.19V.65H83V.78c-3.12,1.3-3.71,3.9-3.71,8.19V37.84c0,4.29.58,6.89,3.71,8.19v.13H69.7V46c3.12-1.3,3.71-3.9,3.71-8.19v-14H46.94v14c0,4.29.59,6.89,3.71,8.19v.13H37.38V46c3.12-1.3,3.71-3.9,3.71-8.19Z"/><path class="cls-1" d="M96.16,46.16H85.89V46c2.54-1.3,4.23-4.36,6.11-8.65L108.32,0h.19l17.62,38.88c2,4.23,2.73,5.85,5.27,7.15v.13H117.88V46c1.89-.78,3-1.89,3-3.45a10,10,0,0,0-1.11-3.9l-3.45-7.74H96.81l-2.67,6.24A11.4,11.4,0,0,0,93,41.68,4.83,4.83,0,0,0,96.16,46Zm1.37-16.9h18L106.3,8.65Z"/><path class="cls-1" d="M144.79,46v.13H133.22V46c3.12-1.3,4.88-4.23,4.88-9.17V9c0-4.29-.58-6.89-3.71-8.19V.65h10.27L161,37.51,176.2.65h9.62V.78c-3.12,1.3-3.71,3.9-3.71,8.19V37.64c0,4.29,1.24,7.09,4.36,8.39v.13H172.1V46c3.12-1.3,4.36-4.1,4.36-8.39V4.42L159,46.88h-.26L139.92,4.42V36.86C139.92,41.81,141.67,44.73,144.79,46Z"/><path class="cls-1" d="M221.38.65A7.36,7.36,0,0,0,224.5.19l2.21,11.25h-.13c-3.38-6.18-7.09-9.1-14.37-9.1H201.36v19.9h9.17c5.27,0,6.89-1.17,9.1-7.22h.13V30.17h-.13c-2.21-6-3.84-6.24-9.1-6.24h-9.17V44.47h12.22c7.28,0,11.51-3.38,15-10.27h.13l-2.08,12H191.8V46c3.12-1.3,3.71-3.9,3.71-8.19V9c0-4.29-.58-6.89-3.71-8.19V.65Z"/></g></g></svg>