<svg id="Layer_1" data-name="Layer 1" xmlns="http://www.w3.org/2000/svg" viewBox="0 0 342.35 323.53"><defs><style>.cls-1{fill:#ec008c;}</style></defs><title>doodle</title><path class="cls-1" d="M5.09,19.64c-4,22.93,6.53,43.81,21.06,60.92a180.07,180.07,0,0,0,52,41.66c19.06,10.12,42.36,17.61,64.18,14.66A27.77,27.77,0,0,0,165,119.26c4.28-10.59,2.18-22.18-2.57-32.23-8.71-18.44-28.51-35.56-50.16-30.74-23.22,5.17-31.53,30.88-31.93,51.8-0.39,20,4.11,41.28,16.73,57.26,14.58,18.47,37.06,21.93,59,24.87,12.47,1.67,25,2.74,37.51.42,11.67-2.17,22-8,30.87-15.69,17.3-15,30.8-35.77,40.33-56.4,4.47-9.68,9.64-21,6.51-31.85-2.63-9.13-10.86-14.6-20.06-15.29-23.58-1.77-34.63,23.86-42.22,41.78-9.61,22.69-16.72,46.92-19.52,71.45-1.34,11.75.54,23.19,7.67,32.85,6.23,8.43,14.77,14.83,23.9,19.82,20,10.94,44.72,16.33,65.71,4.81,17.83-9.79,27.26-31.67,18.27-50.72-4.52-9.58-14.72-17.27-25.68-15.46-10.23,1.68-19.94,9.86-27.6,16.42-15.84,13.57-27.94,32.14-30.25,53.18-2.12,19.35,4.43,40.3,19.86,52.79,16.77,13.57,38.79,14.84,59.48,15.11,10.29,0.13,20.58.09,30.82,1.16,7.61,0.8,7.56-11.11,0-11.91-30-3.15-74.37,6.69-92.35-25-18.08-31.86,4.36-67,31.34-84.74,3.47-2.28,7.61-5.38,11.94-5.43s8.23,3.41,10.5,6.87c4.27,6.51,4.44,15.16,1.72,22.3-6.44,16.85-27.36,22.19-43.51,19.28-16.89-3-37.29-12.9-46.34-28.19-5.11-8.63-4.4-18.43-2.87-28a270.52,270.52,0,0,1,6.68-30.23c5.2-18.46,11.8-38.33,22.48-54.42,4.25-6.41,10.52-12.26,18.7-11.91,8.79,0.38,11.46,7.68,9.71,15.46-2,8.89-6.66,17.47-11,25.4A182.35,182.35,0,0,1,232.6,148.7c-11.77,15.05-25.94,28.8-45.82,31-10.26,1.13-20.7,0-30.87-1.42-9.65-1.34-19.45-2.58-28.71-5.74C111,167,100.78,153.32,96,137.28c-4.84-16.23-6.5-37.42.87-53.09,3.41-7.24,9.31-13.81,17.2-16.08,8.35-2.39,16.92,1,23.53,6.11C149.69,83.58,163,105.85,151,120c-5.71,6.7-16,5.81-23.91,5.19a102.82,102.82,0,0,1-26.58-6C83,113,67.08,102.55,53.09,90.5,39.53,78.83,26.09,65,19.56,48c-3.09-8-4.47-16.63-3-25.18,1.3-7.49-10.17-10.71-11.48-3.17h0Z"/></svg>