<svg id="Layer_1" data-name="Layer 1" xmlns="http://www.w3.org/2000/svg" viewBox="0 0 298.82 350.59"><defs><style>.cls-1{fill:#27aae1;}</style></defs><title>doodle</title><path class="cls-1" d="M174,26.43q-26.81,2.95-53.56,6.43c-16.37,2.13-33.63,3.28-49.3,8.81C56.81,46.75,45.64,56,36.57,68.13A148.84,148.84,0,0,0,25.13,86.38c-3.35,6.17-7.9,13.13-5.32,20.38,2.25,6.34,9.42,10.61,15,13.66a76.33,76.33,0,0,0,19.7,7.29c14.74,3.3,29.93,3,44.86,1.38,17.35-1.87,34.63-5.19,52.15-5,3.34,0,7.29-.24,10.45,1s4.05,4.26,4.68,7.32c1.69,8.25,1.9,17,2.72,25.42,0.77,7.81,1.91,16.86-4,23-5,5.2-12.58,7.22-19.37,8.69a130.18,130.18,0,0,1-59.11-1.25,6.06,6.06,0,0,0-7.32,4.16q-9,32.87-14.75,66.49c-3.11,18.35-10.42,42.18,6.84,55.6,7.11,5.52,15.91,8.82,24.21,12.1a155.94,155.94,0,0,0,30.71,9c21.45,3.7,41.52.28,61.51-7.94,20.5-8.43,40.58-18,60.8-27.1,8.78-4,15.44-8.34,18.86-17.76,3.35-9.26,4-20.1,4.06-29.87,0.2-42.18-18.32-83.7-37.22-120.54q-8.3-16.17-17.75-31.71c-5.89-9.68-12.56-19-17.51-29.2-4.42-9.13-5-18.48-7-28.21-1.79-8.65-5.76-15.85-14.29-19.14-7.15-2.76-10.25,8.75-3.17,11.48,5.54,2.14,6.12,11.1,6.85,16,1.18,8,2.65,15.34,5.92,22.77,7.47,17,19.26,32.17,28.31,48.37,18.39,32.93,35.56,69.06,42,106.51a134.17,134.17,0,0,1,1.84,29c-0.37,7.74-.6,18.91-5.69,25.26-2.33,2.91-6.08,4.37-9.38,5.88-4.81,2.19-9.64,4.33-14.46,6.5l-28.92,13c-17.26,7.75-34.95,16.09-54.22,16.46s-38.38-5.84-55.92-13.61c-7.54-3.34-16.8-7.34-18.44-16.4-0.95-5.22.13-10.86,0.87-16q1.17-8.19,2.55-16.35A688.93,688.93,0,0,1,91.08,195.7l-7.32,4.16a142.91,142.91,0,0,0,51.83,3.49c13.39-1.62,29.78-4.22,39.16-15,10.63-12.22,6.63-29.43,5.16-44.06-0.72-7.12-.68-15.15-4.07-21.66s-9.62-9.28-16.6-10c-32.65-3.55-65,10.2-97.68,4.42a68.11,68.11,0,0,1-20.73-6.87,37.51,37.51,0,0,1-8.21-5.5c-3.11-3-.44-6.18,1.28-9.43,6.72-12.7,14.44-25.81,26.19-34.52,15-11.1,34.75-12.51,52.61-14.89q30.63-4.09,61.34-7.45c7.53-.83,7.62-12.74,0-11.91h0Z"/></svg>