<svg id="Layer_1" data-name="Layer 1" xmlns="http://www.w3.org/2000/svg" viewBox="0 0 464.71 304.71"><defs><style>.cls-1{fill:#f9ed32;}</style></defs><title>doodle</title><path class="cls-1" d="M187,103.67Q157.62,100,128,99.29c-18.71-.44-37.84-0.57-56.46,1.53-19.89,2.23-40.57,8.6-50.83,27.46C10.2,147.53,15,171.07,27.57,188.12c21.92,29.66,57.4,46.05,92.22,55.28C157,253.28,196.18,257.68,234.5,261c39.26,3.36,78.7,4.34,118.09,3.79,19.38-.27,39.29.11,58.57-2,14-1.54,26.42-7.47,33.3-20.43,5-9.38,6.24-19.76,7.57-30.12C460.42,146.72,427.92,79,373.91,42c-30.82-21.1-75.76-31.53-108.46-8.33-15.3,10.86-26.05,25.38-36.65,40.64-2.17,3.12-4.33,6.25-6.57,9.33-0.58.8-1.32,1.62-1.81,2.46,0,0,3-3.7,1.31-1.74-1.57,1.79-3,3.65-4.66,5.4-2.53,2.74-5.29,5.19-8,7.73-1.38,1.28-2.94,1.26,1.13-.78a17.56,17.56,0,0,0-1.9,1.37,60.24,60.24,0,0,1-5.89,3.64,16.8,16.8,0,0,0-2.71,1.36s4.63-1.66,2.23-1c-1.66.49-3.26,1.12-5,1.52a14.31,14.31,0,0,0-2.89.57c0.55-.41,5.93-0.31,1.93-0.42-1.84-.05-8.36-0.83-1.17.31-6.53-1-12.42-1.07-18.35,2.4-4.94,2.89-9.65,8.55-10.94,14.23C163,132.19,169,148,182.19,150.06c10.27,1.63,20.22,1.9,30.29-1.26a75.59,75.59,0,0,0,23-11.89c14.35-10.86,24.69-24.47,34.89-39.15,2-2.93,4.07-5.86,6.18-8.74,0.54-.74,4.11-5.56,1.8-2.45-2,2.71-.43.56,0,0,0.81-1,1.6-1.93,2.42-2.88a91,91,0,0,1,6.69-7c0.82-.76,5-4.17,2.08-2-2.78,2.06-.63.46-0.06,0.08,1-.68,2-1.39,3.08-2,1.49-.92,3-1.72,4.57-2.53,3.88-2-3.93,1.11.23-.05,1.78-.5,3.52-1.1,5.33-1.51,0.77-.18,1.54-0.32,2.31-0.48,4.35-.94-3.87.19-0.86,0.12,3.45-.07,6.85-0.29,10.31,0,1,0.08,2.19.34,3.19,0.31-0.05,0-4.93-.89-2.34-0.26,2.1,0.52,4.25.83,6.36,1.37,3.46,0.89,6.82,2,10.18,3.25,4,1.43-.61-0.13-1.1-0.52a11.87,11.87,0,0,0,2.26,1q3,1.4,5.91,3,4.69,2.53,9.13,5.47,2.14,1.41,4.22,2.91c0.79,0.57,1.57,1.17,2.36,1.73,2.51,1.77-3.7-3-1.34-1a177.9,177.9,0,0,1,15.08,13.8q3.53,3.7,6.81,7.63c0.94,1.12,1.84,2.27,2.76,3.41,1.94,2.4-2.84-3.86-1.06-1.34,0.56,0.8,1.16,1.57,1.72,2.36a161.64,161.64,0,0,1,10.83,17.38q2.43,4.51,4.58,9.17c0.72,1.55,2.55,6.81.24,0.35,0.66,1.84,1.46,3.63,2.14,5.46a163.25,163.25,0,0,1,5.93,19.62q1.09,4.63,1.9,9.32c0.29,1.66.38,3.42,0.79,5.06,0,0.18-.62-5.38-0.39-2.7,0.1,1.21.27,2.42,0.38,3.63a151.82,151.82,0,0,1,.52,20.43q-0.2,4.75-.71,9.47c-0.64,6,.71-4.06,0,0.2-0.32,1.93-.62,3.86-1,5.77-0.33,1.62-.68,3.23-1.15,4.82a10.19,10.19,0,0,0-.65,2c0-.24,2.34-4.29,1-2.5-0.7.93-2.52,2.81-.05,0.4,1.23-1.2,2.09-2.52,3.7-3.36l1.42-.5q2.89-1-.09,0l-1.56.34,3.12-.44c-1.41-.52-4.75.26-6.16,0.32l-6.83.29q-6.83.28-13.67,0.5c-36.46,1.2-73,1.26-109.43-.49q-27.79-1.33-55.48-4.14-6.31-.65-12.61-1.39l-6.78-.82-2.9-.37c-0.71-.09-6.14-0.5-2.64-0.34,3,0.14-.15,0-0.7-0.1l-3.86-.55-5.79-.86q-7.24-1.1-14.46-2.33a366.68,366.68,0,0,1-44.35-10q-5-1.51-10-3.25-2.65-.93-5.28-1.94c-1-.38-2-0.8-3-1.17-3-1.12,4.19,1.88,1.26.55A171,171,0,0,1,87.22,179c-3.14-2-6.13-4.09-9.14-6.25-2.16-1.55,1.75,1.3,1.69,1.3a14.38,14.38,0,0,1-2.45-2q-2.13-1.81-4.16-3.71c-1.31-1.22-2.59-2.47-3.81-3.78-0.75-.8-4.26-5-2-2.23s-1.21-1.93-1.63-2.62c-0.95-1.54-1.7-4.05-2.89-5.34,0,0,1.65,4.63,1,2.25-0.2-.7-0.5-1.39-0.72-2.09-0.36-1.15-1.35-6.51-.79-2.44,0.62,4.58.35-1.9,0.19-2.41,0,0.14-1.15,5.13-.37,2.92a19.19,19.19,0,0,0,1-3.33c0,0.38-2.31,4.16-.86,2.47a7.79,7.79,0,0,0,1.11-1.77c-0.23.76-3.9,3.94-1.17,1.76a9.41,9.41,0,0,0,1.45-1.34c1.29-1.71-1.86,1.76-2.21,1.74a17,17,0,0,0,2.26-1.37c0.58-.32,1.21-0.58,1.79-0.9,2.27-1.28-5.74,1.9-1.28.63a84.13,84.13,0,0,1,8.82-2.15c5.34-.91-4.28.36,0,0,1.85-.16,3.7-0.32,5.55-0.44,9-.58,18.11-0.9,27.17-1q27.19-.4,54.34,1.72,13.56,1.06,27.05,2.75c5.62,0.69,13-3.16,16.84-7,4.13-4.13,7.24-10.91,7-16.84-0.28-6.16-2.3-12.55-7-16.84-5-4.56-10.2-6.15-16.84-7h0Z"/></svg>