<svg id="Layer_1" data-name="Layer 1" xmlns="http://www.w3.org/2000/svg" viewBox="0 0 282.35 408.24"><defs><style>.cls-1{opacity:0.8;}.cls-2{fill:#f26522;}</style></defs><title>doodle</title><g class="cls-1"><path class="cls-2" d="M53.44,300Q51.31,173.85,55.77,47.72L35.44,56.14c35.83,29.38,72.18,58.25,107.09,88.72,15.95,13.92,32,28.08,45.86,44.16A124.3,124.3,0,0,1,215,239.34c10,38.42,5.9,78.91,14.19,117.67,1,4.86,2.27,9.68,3.75,14.43q1,3.17,2.12,6.29a16.93,16.93,0,0,0,1.17,3.11q1.5,5.56,4-5.31l0.49-.4c0.29,0.26.42,0.12-.7-0.08a26.6,26.6,0,0,0-4.44,0h-8c-5.36,0-10.73-.07-16.09-0.18-20.55-.44-41.17-1.75-61.25-6.4a156.86,156.86,0,0,1-32.13-10.85c-10.7-5.1-20.86-11.23-31.34-16.73q-8.44-4.43-17.22-8.08c-4.33-1.79-9.61-2.91-13.33-5.42-2.43-1.64-3.14-3.87-3.52-6.82-0.44-3.4.17-9.51,0.62-12.53,0.95-6.35-1.59-12.8-8.32-14.65-5.62-1.54-13.69,1.92-14.65,8.32-1.66,11.15-2.84,22.55,2,33.13S47,349.71,57.42,353.51c21.68,7.92,40.52,22.06,62.06,30.46,21.88,8.53,45.43,12.09,68.76,13.72,11.3,0.79,22.63,1.06,34,1.15,10.6,0.09,25.61,2.64,33.82-5.67,9.62-9.74.88-23.62-2-34.43a201.72,201.72,0,0,1-5.33-29.6c-2.37-21.73-2.7-43.64-5.33-65.35-2.71-22.4-7.62-44.44-18.67-64.35-10.82-19.5-26.55-35.91-42.72-51C140.75,109.85,95.91,75.08,52.28,39.3,44.39,32.84,32.34,36.82,32,47.72Q27.5,173.8,29.63,300c0.26,15.31,24.07,15.35,23.81,0h0Z"/></g></svg>